<svg width="68" height="32" viewBox="0 0 68 32" fill="none" xmlns="http://www.w3.org/2000/svg">
<g clip-path="url(#clip0_5_34)">
<path d="M0.0703704 13.5259C0.0703704 12.5296 0.0333333 11.6963 0 10.9481H1.86667L1.97407 12.2296H2.02593C2.43333 11.5556 3.21852 10.7556 4.69259 10.7556C5.82963 10.7556 6.71852 11.3963 7.09259 12.3556H7.12963C7.43333 11.8741 7.78889 11.5185 8.17778 11.2704C8.67407 10.9333 9.22593 10.7556 9.95555 10.7556C11.3778 10.7556 12.837 11.7333 12.837 14.5074V19.6111H10.7037V14.8296C10.7037 13.3889 10.2074 12.537 9.15555 12.537C8.40741 12.537 7.85926 13.0704 7.62593 13.6926C7.55556 13.8889 7.51852 14.1741 7.51852 14.4222V19.6148H5.38518V14.6C5.38518 13.3926 4.9037 12.537 3.89259 12.537C3.07407 12.537 2.52222 13.1778 2.31111 13.763C2.24074 13.9926 2.2037 14.2444 2.2037 14.4926V19.6148H0.0703704V13.5333V13.5259Z" fill="#003D79"/>
<path d="M20.9556 17.5259C20.9556 18.3074 20.9926 19.0741 21.0963 19.6074H19.1222L18.963 18.6481H18.9111C18.3963 19.3222 17.4889 19.8037 16.3518 19.8037C14.6111 19.8037 13.6333 18.5407 13.6333 17.2259C13.6333 15.0556 15.5704 13.937 18.7704 13.9556V13.8148C18.7704 13.2444 18.5407 12.3037 17.0111 12.3037C16.1593 12.3037 15.2704 12.5704 14.6815 12.9444L14.2556 11.5222C14.8963 11.1296 16.0148 10.7593 17.3852 10.7593C20.1593 10.7593 20.9593 12.5185 20.9593 14.4222V17.5333L20.9556 17.5259ZM18.8222 15.3741C17.2741 15.3556 15.8 15.6778 15.8 16.9926C15.8 17.8444 16.3518 18.237 17.0444 18.237C17.9333 18.237 18.5556 17.6667 18.7704 17.0444C18.8222 16.8852 18.8222 16.7259 18.8222 16.563V15.3704V15.3741Z" fill="#003D79"/>
<path d="M22.3926 13.5259C22.3926 12.5296 22.3556 11.6963 22.3222 10.9481H24.2259L24.3333 12.2444H24.3852C24.7778 11.5704 25.7185 10.7518 27.1593 10.7518C28.6704 10.7518 30.2333 11.7296 30.2333 14.4667V19.6037H28.0481V14.7148C28.0481 13.4704 27.5852 12.5296 26.3963 12.5296C25.5259 12.5296 24.9222 13.1518 24.6889 13.8111C24.6185 13.9889 24.5815 14.2555 24.5815 14.5037V19.6074H22.3963V13.5259H22.3926Z" fill="#003D79"/>
<path d="M39.537 7.58518V17.2407C39.537 18.1296 39.5741 19.0889 39.6074 19.6778H37.6704L37.563 18.3074H37.5259C37.0111 19.2667 35.963 19.8704 34.7185 19.8704C32.637 19.8704 31.0037 18.1111 31.0037 15.4444C30.9852 12.5481 32.8 10.8222 34.8778 10.8222C36.0704 10.8222 36.9222 11.3037 37.3148 11.9407H37.3519V7.58518H39.537ZM37.3519 14.5556C37.3519 14.3778 37.3333 14.1481 37.3 13.9704C37.1037 13.1333 36.4111 12.4407 35.4148 12.4407C34.0111 12.4407 33.2296 13.6852 33.2296 15.2852C33.2296 16.8852 34.0111 18.0407 35.4 18.0407C36.2889 18.0407 37.0704 17.437 37.2852 16.4926C37.337 16.2963 37.3556 16.0852 37.3556 15.8518V14.5556H37.3519Z" fill="#003D79"/>
<path d="M41.0444 19.6037V10.9444H43.2296V19.6037H41.0444Z" fill="#003D79"/>
<path d="M44.7667 13.737C44.7667 12.563 44.7481 11.7111 44.6963 10.9444H46.5815L46.6704 12.5815H46.7222C47.1481 11.3741 48.163 10.9444 49.1037 10.9444C49.3185 10.9444 49.4407 10.963 49.6185 10.9963V12.9296C49.4222 12.8926 49.2259 12.8778 48.9593 12.8778C47.9296 12.8778 47.2 13.4518 47.0037 14.4481C46.9667 14.6444 46.9519 14.8741 46.9519 15.1074V19.6037H44.7667V13.737Z" fill="#003D79"/>
<path d="M50.5 19.6037V10.9444H52.6852V19.6037H50.5Z" fill="#003D79"/>
<path d="M0.0592575 31.8222V24H0.840739V31.8222H0.0592575Z" fill="#003D79"/>
<path d="M2.94074 25.8741C2.94074 25.1556 2.92592 24.6185 2.87407 24H3.60741L3.65555 25.4185H3.68889C4.11111 24.537 5.10741 23.8222 6.37778 23.8222C7.12592 23.8222 9.11481 24.1963 9.11481 27.1296V31.8222H8.33333V27.1926C8.33333 25.7741 7.77778 24.4852 6.16667 24.4852C5.07407 24.4852 4.12963 25.2667 3.81852 26.2778C3.77037 26.4741 3.72222 26.7333 3.72222 26.9778V31.8185H2.94074V25.8704V25.8741Z" fill="#003D79"/>
<path d="M10.7481 24L12.5741 28.8556C12.8852 29.6222 13.1296 30.2889 13.3407 30.9407H13.3741C13.5852 30.2889 13.8778 29.6037 14.1741 28.8556L16.0333 24H16.8481L13.6704 31.8222H12.9852L9.92222 24H10.7518H10.7481Z" fill="#003D79"/>
<path d="M17.837 27.8296C17.837 30.3222 19.1889 31.3185 20.8185 31.3185C21.9593 31.3185 22.5444 31.0889 22.9852 30.8778L23.1815 31.4815C22.8889 31.6444 22.0889 31.9852 20.7185 31.9852C18.4704 31.9852 17.0667 30.3556 17.0667 28.0556C17.0667 25.4482 18.5667 23.8185 20.5889 23.8185C23.1481 23.8185 23.637 26.2296 23.637 27.3556C23.637 27.5667 23.637 27.6815 23.6037 27.8296H17.8333H17.837ZM22.8259 27.2074C22.8407 26.1148 22.3852 24.4704 20.4963 24.4704C18.7704 24.4704 18.0185 26.0037 17.8741 27.2074H22.8296H22.8259Z" fill="#003D79"/>
<path d="M24.7778 30.7963C25.2 31.0556 25.837 31.3333 26.537 31.3333C27.7741 31.3333 28.363 30.6667 28.363 29.8518C28.363 28.9889 27.8407 28.5333 26.7185 28.0741C25.4296 27.5852 24.7296 26.8852 24.7296 25.9407C24.7296 24.8148 25.6259 23.8222 27.1407 23.8222C27.8593 23.8222 28.4778 24.0333 28.8667 24.3111L28.5741 24.9481C28.2963 24.7518 27.7926 24.4741 27.0111 24.4741C26.0185 24.4741 25.4963 25.1111 25.4963 25.8259C25.4963 26.6407 26.0518 27 27.1111 27.4407C28.3815 27.9296 29.1333 28.5667 29.1333 29.7556C29.1333 31.0926 28.0889 31.9889 26.4926 31.9889C25.7444 31.9889 25.0259 31.7778 24.5037 31.4518L24.7815 30.8L24.7778 30.7963Z" fill="#003D79"/>
<path d="M31.737 22.2704V23.9963H33.9704V24.6333H31.737V29.7185C31.737 30.7111 32.0481 31.3333 32.8778 31.3333C33.2852 31.3333 33.5778 31.2852 33.7741 31.2185L33.8704 31.8037C33.6111 31.9185 33.2518 32 32.7778 32C32.2074 32 31.7333 31.8222 31.4407 31.4444C31.0815 31.037 30.9518 30.3704 30.9518 29.5704V24.6333H29.6333V23.9963H30.9518V22.563L31.7333 22.2704H31.737Z" fill="#003D79"/>
<path d="M35.1778 25.8741C35.1778 25.1556 35.163 24.6185 35.1111 24H35.8444L35.8926 25.3852H35.9259C36.4296 24.4889 37.1815 23.8222 38.4667 23.8222C39.5407 23.8222 40.3741 24.5407 40.7148 25.5333H40.7481C40.9593 25.0593 41.2518 24.7185 41.5481 24.4741C42.0518 24.0519 42.5741 23.8222 43.4074 23.8222C44.1741 23.8222 45.9667 24.2444 45.9667 27.2111V31.8222H45.1852V27.2926C45.1852 25.5333 44.5 24.4889 43.1481 24.4889C42.1704 24.4889 41.4037 25.2074 41.0963 26.037C41.0296 26.2667 40.9667 26.5259 40.9667 26.8037V31.8222H40.1852V26.9333C40.1852 25.5148 39.5185 24.4889 38.2444 24.4889C37.2 24.4889 36.3704 25.337 36.0778 26.2481C36.0111 26.4593 35.963 26.737 35.963 26.9963V31.8222H35.1815V25.8741H35.1778Z" fill="#003D79"/>
<path d="M48.1148 27.8296C48.1148 30.3222 49.4667 31.3185 51.0963 31.3185C52.237 31.3185 52.8222 31.0889 53.263 30.8778L53.4593 31.4815C53.1667 31.6444 52.3667 31.9852 50.9963 31.9852C48.7481 31.9852 47.3444 30.3556 47.3444 28.0556C47.3444 25.4482 48.8444 23.8185 50.8667 23.8185C53.4259 23.8185 53.9148 26.2296 53.9148 27.3556C53.9148 27.5667 53.9148 27.6815 53.8815 27.8296H48.1111H48.1148ZM53.1037 27.2074C53.1185 26.1148 52.663 24.4704 50.7741 24.4704C49.0481 24.4704 48.2963 26.0037 48.1518 27.2074H53.1074H53.1037Z" fill="#003D79"/>
<path d="M55.3815 25.8741C55.3815 25.1556 55.3667 24.6185 55.3148 24H56.0481L56.0963 25.4185H56.1296C56.5518 24.537 57.5481 23.8222 58.8185 23.8222C59.5667 23.8222 61.5555 24.1963 61.5555 27.1296V31.8222H60.7741V27.1926C60.7741 25.7741 60.2185 24.4852 58.6074 24.4852C57.5148 24.4852 56.5704 25.2667 56.2593 26.2778C56.2111 26.4741 56.163 26.7333 56.163 26.9778V31.8185H55.3815V25.8704V25.8741Z" fill="#003D79"/>
<path d="M64.6704 22.2704V23.9963H66.9037V24.6333H64.6704V29.7185C64.6704 30.7111 64.9815 31.3333 65.8111 31.3333C66.2185 31.3333 66.5111 31.2852 66.7074 31.2185L66.8037 31.8037C66.5444 31.9185 66.1852 32 65.7111 32C65.1407 32 64.6667 31.8222 64.3741 31.4444C64.0148 31.037 63.8852 30.3704 63.8852 29.5704V24.6333H62.5667V23.9963H63.8852V22.563L64.6667 22.2704H64.6704Z" fill="#003D79"/>
<path d="M53.2963 -7.35279e-07C53.3111 0.0222215 53.3148 0.0444437 53.3074 0.0666659C53.5778 0.281481 53.6778 0.603703 53.8111 0.892592C54.2518 1.86667 54.7185 2.82593 55.1481 3.8C55.2518 4.03333 55.1852 4.12222 54.9296 4.11481C54.7704 4.11111 54.6074 4.07778 54.4519 4.14444C54.2481 4.18148 54.0444 4.21852 53.8407 4.25185C53.6259 4.2963 53.5593 4.13704 53.4963 3.99259C53.0407 2.96296 52.5037 1.96667 52.1 0.91111C52.037 0.744444 51.9593 0.592592 51.8481 0.448147C51.7519 0.322221 51.7037 0.188888 51.8667 0.0703696C51.863 0.0444437 51.8667 0.0185178 51.8741 -0.00740814H53.2926L53.2963 -7.35279e-07Z" fill="#FEC909"/>
<path d="M32.6148 2.29259C33.2704 1.87407 33.9407 1.47778 34.6444 1.14074C35.3111 0.881482 35.3407 0.862963 35.7741 1.47778C36.2593 2.15926 36.5259 2.95926 36.8481 3.72222C36.937 3.92593 37.0407 4.11482 37.1852 4.28148C37.4148 4.54815 37.3914 4.79753 37.1148 5.02963C37.0704 5.06667 37.0185 5.1 36.9704 5.13333C36.2667 5.52222 35.563 5.91111 34.8593 6.3C34.5815 6.48889 34.3667 6.36296 34.1481 6.17407C33.7926 5.86667 33.6852 5.42593 33.5222 5.02222C33.2444 4.32593 32.8185 3.7 32.5556 2.9963C32.463 2.74815 32.4074 2.51482 32.6074 2.2963L32.6148 2.29259Z" fill="#FEC909"/>
<path d="M36.9741 5.12963C37.0926 4.96296 37.2111 4.8 37.3333 4.62222C37.0444 4.39259 36.7926 4.14074 36.6815 3.74815C36.4963 3.1037 36.1444 2.52222 35.8778 1.90741C35.6778 1.44815 35.3593 0.903703 34.6481 1.13333C35.3185 0.685184 36.063 0.459258 36.8667 0.425925C36.9778 0.374073 37.0704 0.381481 37.1148 0.51111C37.5037 1.67037 38.1074 2.73704 38.5556 3.86667C38.6481 4.1037 38.8704 4.38518 38.4889 4.59259C37.9852 4.77037 37.4815 4.94815 36.9778 5.12593L36.9741 5.12963Z" fill="#FEC70B"/>
<path d="M26.8519 5.56666C27.3741 5.25185 27.8889 4.92592 28.4481 4.67407C28.9296 5.09259 29.2037 5.64074 29.3667 6.23333C29.4222 6.43333 29.4481 6.62592 29.5926 6.78518C29.6519 6.85185 29.7259 6.92592 29.7296 7.01111C29.7667 7.68148 30.2444 8.1037 30.5963 8.6C29.5444 8.81111 28.6667 8.45185 27.9593 7.70741C27.463 7.18518 27.0444 6.59259 26.5889 6.02963C26.4037 5.71852 26.7407 5.70741 26.8556 5.56666H26.8519Z" fill="#FDB813"/>
<path d="M30.5926 8.6C30.2815 8.64815 30.2037 8.38519 30.0741 8.20741C29.863 7.91852 29.4889 7.6963 29.6518 7.23333C29.6741 7.17407 29.6074 7.05926 29.5481 7C29.3111 6.75185 29.1519 6.52593 29.1926 6.12222C29.2185 5.86667 28.9222 5.56667 28.7481 5.3037C28.6185 5.1037 28.4926 4.90741 28.4444 4.67407C28.9259 4.34815 29.4296 4.05926 29.9593 3.80741C30.0963 5.01852 30.8556 5.98148 31.2704 7.08148C31.4037 7.43704 31.6333 7.75556 31.6556 8.14815C31.3407 8.39259 31 8.56667 30.5926 8.6Z" fill="#FDBD10"/>
<path d="M30.3074 3.61481C30.7889 3.28148 31.2963 2.99629 31.8222 2.74815C32.2778 3.97037 32.9 5.12592 33.3333 6.35926C33.4222 6.61481 33.7518 6.64815 33.8037 6.91852C33.463 7.15555 33.1037 7.36666 32.7259 7.53333C32.5148 7.56666 32.4111 7.48518 32.2852 7.29259C31.7037 6.4037 31.2556 5.44815 30.8222 4.48518C30.7593 4.34444 30.6333 4.26666 30.5111 4.18148C30.3148 4.04444 30.2074 3.86296 30.3111 3.61481H30.3074Z" fill="#FEC20D"/>
<path d="M48.9444 6.72592C48.6111 6.96296 48.2593 7.17037 47.8852 7.33703C47.5556 7.16296 47.4519 6.82592 47.3185 6.52222C46.9037 5.57778 46.4667 4.64444 46.0111 3.71852C45.9333 3.55926 45.7889 3.44074 45.7481 3.26296C46.1407 2.98518 46.5518 2.74444 46.9926 2.55185C47.1444 2.55185 47.2407 2.63703 47.2926 2.77037C47.7926 4.06666 48.5889 5.23333 48.9481 6.58889C48.9593 6.62963 48.9481 6.67778 48.9481 6.71852L48.9444 6.72592Z" fill="#F8A61A"/>
<path d="M30.3074 3.61481C30.437 3.83704 30.537 4.06296 30.8074 4.18148C31.063 4.29259 31.0148 4.61481 31.1407 4.82963C31.5889 5.59259 31.8518 6.45926 32.437 7.15556C32.5259 7.26296 32.5852 7.43704 32.7259 7.53704C32.3926 7.78518 32.0296 7.98148 31.6556 8.15185C31.5704 8.1 31.4407 8.07778 31.4259 7.96296C31.3593 7.48148 31.0259 7.11481 30.8704 6.67407C30.6074 5.92222 30.2 5.23704 29.8667 4.51852C29.737 4.24444 29.8444 4.03704 29.9593 3.81111C30.0556 3.70741 30.1704 3.64074 30.3074 3.61481Z" fill="#FEBF10"/>
<path d="M33.8037 6.91852C33.4222 6.8037 33.1778 6.62592 33.0963 6.16296C33.0296 5.78148 32.7852 5.41481 32.6 5.05185C32.3518 4.56296 32.1741 4.03704 31.9778 3.52222C31.8852 3.27407 31.563 3.06667 31.8222 2.74815C32.063 2.55926 32.3296 2.40741 32.6148 2.29259C32.5741 2.85185 32.8704 3.31111 33.1185 3.75926C33.4481 4.35926 33.6889 4.98889 33.963 5.61111C34.1259 5.98148 34.3889 6.3 34.8667 6.3C34.5481 6.57037 34.1593 6.71481 33.8074 6.91852H33.8037Z" fill="#FEC70B"/>
<path d="M43.8889 4.14815C44.4074 4.05926 44.8185 3.71852 45.2926 3.52963C45.5 3.47407 45.5407 3.64444 45.6 3.77037C46.0815 4.81111 46.5926 5.83704 47.0741 6.87407C47.2037 7.15555 47.3741 7.47037 47.0815 7.77407C46.8074 8.02592 46.4852 8.18148 46.1111 8.22963C45.637 7 45.0481 5.82592 44.5185 4.62222C44.3741 4.29629 44.0296 4.38889 43.8852 4.15185L43.8889 4.14815Z" fill="#FBAE17"/>
<path d="M64.1074 1.41111C64.5 1.26667 64.8889 1.2037 65.2815 1.41111C65.1704 1.52222 65.2481 1.62222 65.3 1.72963C65.7074 2.62593 66.1407 3.50741 66.5852 4.38518C66.7074 4.62222 66.6741 4.82963 66.637 5.05926C66.4407 5.2037 66.2407 5.33333 66.0074 5.41111C65.7667 5.57407 65.6518 5.53704 65.4741 5.25926C64.8222 4.24074 64.3296 3.15185 63.9148 2.02222C63.8222 1.77037 63.8 1.53333 64.1148 1.41111H64.1074Z" fill="#FEC70B"/>
<path d="M38.4889 4.6C38.6556 4.4037 38.5444 4.20741 38.4556 4.03704C37.8963 2.97037 37.5556 1.8 36.9037 0.774073C36.8444 0.681481 36.8519 0.644444 36.9481 0.566666C37.1037 0.44074 36.9111 0.47037 36.8667 0.433332C37.3852 0.314814 37.8926 0.351851 38.3926 0.537036C38.363 1.12963 38.5963 1.66296 38.9074 2.12222C39.2963 2.6963 39.3926 3.37407 39.7074 3.96667C39.8 4.13704 39.7519 4.34444 39.5444 4.45555C39.3704 4.49629 39.1889 4.42592 39.0222 4.5037C38.8556 4.58148 38.6778 4.5963 38.4963 4.6H38.4889Z" fill="#FEC40C"/>
<path d="M48.9444 6.72593C48.4481 6.44815 48.6 5.86667 48.3667 5.45555C48.2518 5.25555 48.2148 4.99259 48.0741 4.78518C47.6444 4.15185 47.3741 3.44444 47.1222 2.72963C47.1 2.66296 47.0407 2.61111 46.9963 2.55185C47.2741 2.34444 47.5667 2.16296 47.8889 2.03333C48.263 2.06296 48.2963 2.41852 48.3741 2.64444C48.6333 3.36667 48.937 4.06667 49.2852 4.74815C49.4593 5.09259 49.4667 5.51852 49.8296 5.77778C49.9593 5.87037 49.8222 6.05926 49.8593 6.2C49.5556 6.37407 49.2518 6.54815 48.9444 6.72222V6.72593Z" fill="#FAA919"/>
<path d="M42.5593 4.08148C42.9407 4.13704 43.3222 4.1963 43.7111 4.16667C44.3593 5.27407 44.8333 6.45926 45.3333 7.63333C45.363 7.7 45.3815 7.77037 45.4037 7.84444C45.5222 8.25185 45.4889 8.28519 45.0407 8.23704C44.7407 8.21111 44.5259 8.03333 44.3481 7.81852C43.9148 7.28519 43.4889 6.74815 43.063 6.21111C43.363 5.95556 43.1259 5.72963 42.9889 5.54815C42.7407 5.21482 42.5704 4.84444 42.4037 4.47037C42.3259 4.2963 42.2778 4.12222 42.5593 4.08148Z" fill="#FCB713"/>
<path d="M54.4556 4.14815C54.5222 4.12222 54.5889 4.09259 54.6593 4.07407C54.7963 4.03704 55 4.14815 55.063 3.99629C55.1444 3.80741 54.8963 3.81111 54.8148 3.71481C54.7185 3.6 54.7926 3.41481 54.7185 3.25926C54.3222 2.42592 53.9741 1.56667 53.5444 0.75185C53.4222 0.522221 53.3815 0.296295 53.3111 0.0629616C53.563 0.0777764 53.8074 0.107406 54.0259 0.25185C54.6074 0.507406 54.9815 0.896295 55.2222 1.52963C55.4963 2.24444 55.8185 2.95926 56.2074 3.63333C56.3 3.79259 56.3148 3.93704 56.2222 4.08518C56.1222 4.24444 55.9741 4.20741 55.8296 4.16296C55.3704 4.15555 54.9148 4.14815 54.4556 4.14444V4.14815Z" fill="#FDC50C"/>
<path d="M39.5444 4.4037C39.5815 4.26296 39.6444 4.11481 39.5556 3.97778C39.2667 3.54444 39.263 2.96667 38.9704 2.57407C38.6148 2.1 38.5259 1.52963 38.2222 1.05556C38.0333 0.759259 38.1259 0.644444 38.3889 0.537037C38.6926 0.574074 38.9593 0.688889 39.1963 0.881481C39.5556 1.3037 39.8444 1.78518 40.2333 2.18148C40.337 2.28518 40.2222 2.45185 40.2519 2.51852C40.4704 3.02963 40.6778 3.54074 40.8222 4.07778C40.8593 4.21111 41.1222 4.28889 40.9593 4.47778C40.8407 4.61481 40.663 4.56667 40.5074 4.52222C40.4519 4.51481 40.3963 4.50741 40.3407 4.4963C40.0852 4.4 39.7963 4.55185 39.5444 4.4V4.4037Z" fill="#FDC20E"/>
<path d="M66.6333 5.05926C66.2148 3.91852 65.6111 2.85926 65.1111 1.75555C65.0074 1.52963 65.0222 1.42963 65.2815 1.41111C66.4407 1.87407 66.963 2.97778 67.7148 3.84815C67.8296 3.97778 67.9074 4.14074 68 4.28889C67.5444 4.54444 67.0889 4.8037 66.6333 5.05926Z" fill="#FEC90A"/>
<path d="M53.2148 4.43333C52.9222 4.55185 52.6296 4.67037 52.337 4.78889C52.2407 4.83704 52.1481 4.78889 52.1037 4.72222C51.8407 4.31481 51.463 3.95926 51.337 3.5C51.1481 2.80741 50.8259 2.19259 50.4926 1.57037C50.3963 1.38889 50.3222 1.19629 50.2556 0.999999C50.2037 0.848147 50.2 0.71111 50.3704 0.622221C50.637 0.433332 50.9296 0.307406 51.2556 0.255554C51.3889 0.28148 51.4667 0.377776 51.4852 0.492591C51.6185 1.41852 52.2704 2.11852 52.5481 2.98148C52.6926 3.42222 53.1222 3.77037 52.963 4.31111C52.9593 4.32963 53.1593 4.32222 53.2148 4.42963V4.43333Z" fill="#FDBE10"/>
<path d="M45.0444 8.23704C45.2148 8.20741 45.3926 8.31482 45.2519 7.93704C44.9296 7.06667 44.4556 6.26296 44.1815 5.37407C44.1185 5.17407 43.9704 5.02222 43.8556 4.85185C43.7222 4.65185 43.5407 4.43704 43.7111 4.16667C43.7704 4.15926 43.8296 4.15556 43.8889 4.14815C44.5296 3.97037 44.6593 4.48519 44.8444 4.88148C45.2926 5.83704 45.7074 6.80741 46.1519 7.76296C46.237 7.94444 46.2259 8.08148 46.1148 8.22963C45.7593 8.35926 45.4037 8.39259 45.0444 8.24074V8.23704Z" fill="#FCB415"/>
<path d="M50.3667 0.625927C50.3185 1.01482 50.5556 1.30741 50.7185 1.61852C50.9593 2.08519 51.2815 2.52593 51.3778 3.03704C51.5111 3.74074 52.0074 4.21482 52.3333 4.79259C52.0667 4.94074 51.8 5.08519 51.5296 5.23334C51.2519 5.34074 51.1963 5.11111 51.1296 4.94445C50.7185 3.92222 50.2296 2.93333 49.763 1.93704C49.6148 1.61852 49.537 1.3 49.7444 0.974075C49.9296 0.822223 50.1296 0.68889 50.363 0.625927H50.3667Z" fill="#FCB812"/>
<path d="M53.2148 4.43333C53.0741 4.42222 52.9481 4.44074 52.8815 4.23704C52.5296 3.1963 52.0222 2.22593 51.4963 1.26667C51.3111 0.933333 51.437 0.566666 51.2556 0.255555C51.4444 0.133333 51.663 0.114815 51.8741 0.0740738C51.8259 0.403703 52.1667 0.514814 52.2704 0.781481C52.7185 1.92963 53.2444 3.04815 53.7444 4.17778C53.7593 4.21111 53.8111 4.22963 53.8481 4.25556C53.637 4.31481 53.4296 4.37407 53.2185 4.42963L53.2148 4.43333Z" fill="#FEC40C"/>
<path d="M40.5074 4.52593C40.6481 4.5 40.8074 4.54815 40.9444 4.35185C40.6259 4.44815 40.6222 4.24444 40.6148 4.06296C40.5889 3.52593 40.1889 3.10741 40.1407 2.57407C40.137 2.51852 40.0111 2.47407 39.9 2.38889H40.2519C39.7852 1.93704 39.3148 1.52222 39.1963 0.877777C39.4815 0.985185 39.6963 1.18518 39.8815 1.41111C40.5148 2.17407 41.137 2.94815 41.763 3.71852C41.7963 3.78518 41.8667 3.78148 41.9222 3.80741C42.0185 3.86296 42.1148 3.91481 42.2074 3.97037C42.2444 4.28518 42.4148 4.56667 42.4704 4.86667C42.5259 5.17778 42.2741 5.29259 41.9296 5.13704C41.4889 4.85556 41.0148 4.65185 40.5074 4.51852V4.52593Z" fill="#FCBE10"/>
<path d="M62.6037 2.11852C62.9778 1.83704 63.3926 1.62963 63.8407 1.5C63.9259 1.62222 63.8296 1.7037 63.7556 1.75185C63.4222 1.96667 63.5037 2.21481 63.6333 2.51481C63.963 3.28148 64.3889 4.0037 64.7 4.78148C64.8556 5.16296 65.0222 5.53333 65.3778 5.77037C65.1926 5.92593 64.9963 6.05556 64.763 6.12593C64.3333 6.24815 64.1148 6.16296 63.9148 5.75185C63.5704 5.04444 63.2481 4.32222 62.9074 3.61111C62.7815 3.34815 62.6815 3.07407 62.5222 2.82593C62.3667 2.58148 62.3296 2.32963 62.6037 2.12593V2.11852Z" fill="#FDBE10"/>
<path d="M59.8667 3.62592C60.2185 3.44815 60.5704 3.27037 60.9222 3.09259C61.1963 4.00741 61.6185 4.86666 62.0296 5.72222C62.2778 6.23703 62.5037 6.76296 62.7889 7.25555C62.5481 7.44444 62.2889 7.6037 61.9926 7.68889C61.737 7.62592 61.6037 7.42592 61.5074 7.21111C60.9778 6.06666 60.5 4.9 59.8889 3.79259C59.8593 3.74074 59.863 3.67778 59.8667 3.61852V3.62592Z" fill="#F9A61A"/>
<path d="M47.0852 7.77407C47.0963 7.41111 47.0037 7.08519 46.8444 6.75556C46.3519 5.73333 45.8037 4.73333 45.4074 3.66296C45.3889 3.61111 45.3333 3.57407 45.2963 3.53333C45.4222 3.4 45.5741 3.31852 45.7481 3.27037C45.9 3.28148 46.0296 3.31111 46.1037 3.47778C46.6889 4.72593 47.2852 5.96667 47.8741 7.21111C47.8926 7.24815 47.8815 7.3 47.8852 7.34074C47.6333 7.51481 47.3926 7.70741 47.0852 7.77407Z" fill="#F9A919"/>
<path d="M65.3815 5.76667C65.0518 5.84444 64.8667 5.65185 64.7704 5.3963C64.3889 4.38148 63.8741 3.42963 63.3963 2.45926C63.1259 1.91111 63.5185 1.73704 63.8444 1.5C63.9111 1.40741 64.0111 1.41481 64.1074 1.41481C63.9815 1.54074 63.9481 1.68889 64.0111 1.85555C64.4037 2.88889 64.8778 3.88518 65.3852 4.86667C65.4778 5.04444 65.7926 5.07037 65.7 5.4C65.6741 5.49629 65.8963 5.38148 66.0037 5.41481C65.8185 5.57037 65.6185 5.7 65.3815 5.77037V5.76667Z" fill="#FEC20E"/>
<path d="M55.8296 4.17037C56.1778 4.06296 56.1593 4.01481 56.0074 3.6963C55.6481 2.93333 55.2333 2.18148 54.9481 1.4C54.7481 0.855555 54.3889 0.592592 54.0259 0.259258C54.6926 0.44074 55.1741 0.870369 55.5778 1.40741C55.8222 1.73333 56.0815 2.04815 56.3333 2.37037C56.4741 2.6963 56.7222 2.95926 56.9296 3.23333C57.1815 3.57407 57.2259 3.96296 57.3667 4.32963C57.4185 4.46667 57.4852 4.69259 57.1889 4.7037C56.7519 4.48889 56.3 4.31481 55.837 4.17037H55.8296Z" fill="#FDBF0F"/>
<path d="M49.7481 0.970371C49.8037 1.01482 49.8593 1.05926 49.9148 1.10741C49.5926 1.46296 49.8963 1.72963 50.037 2.02963C50.3037 2.5963 50.563 3.16667 50.8074 3.74074C50.9815 4.15185 51.2667 4.51852 51.3148 4.98519C51.3222 5.07037 51.3852 5.21852 51.5333 5.22963C51.3704 5.41852 51.1148 5.44815 50.9222 5.58889C50.5444 5.57778 50.5259 5.24815 50.4259 5.01111C50.0593 4.14815 49.7111 3.27408 49.2741 2.44074C49.2259 2.34815 49.1889 2.25556 49.1259 2.17037C48.737 1.64815 48.7444 1.6037 49.2926 1.22593C49.4222 1.10741 49.5704 1.01852 49.7444 0.970371H49.7481Z" fill="#FCB414"/>
<path d="M49.2963 1.22593C49.263 1.33333 49.1667 1.37778 49.0889 1.44444C48.9555 1.56667 48.9111 1.75926 49.0444 1.87037C49.5963 2.32593 49.7074 3.01111 50.0148 3.5963C50.3555 4.24444 50.5259 4.96667 50.9185 5.58889C50.8185 5.64444 50.7222 5.7 50.6222 5.75555C50.2741 5.96296 50.0593 5.83704 49.8963 5.4963C49.363 4.38148 48.8852 3.24074 48.3778 2.11481C48.2963 1.93704 48.3704 1.8037 48.5 1.68518C48.7407 1.4963 49.0074 1.34815 49.2889 1.22963L49.2963 1.22593Z" fill="#FBAF16"/>
<path d="M58.4481 3.81481C58.7148 3.81111 58.9815 3.80741 59.2481 3.8C59.563 3.72222 59.7593 3.86667 59.8704 4.14074C60.2296 5.02592 60.6889 5.86667 61.037 6.75926C61.1148 6.95555 61.2593 7.10741 61.3518 7.28889C61.4444 7.47037 61.5593 7.65185 61.4593 7.87037C61.0889 8.01481 60.7296 7.97778 60.3815 7.8C60.0074 6.65185 59.3593 5.62592 58.9259 4.50741C58.8148 4.21481 58.5111 4.10741 58.4444 3.81481H58.4481Z" fill="#FBAF16"/>
<path d="M62.6037 2.11852C62.5333 2.28519 62.4963 2.45556 62.6 2.62222C63.1852 3.5963 63.6 4.64815 64.0667 5.68148C64.1926 5.96667 64.4296 6.13704 64.7667 6.11852C64.5148 6.37407 64.1555 6.44815 63.8704 6.64815C63.7111 6.7037 63.663 6.57778 63.6074 6.48148C63.0296 5.44444 62.5296 4.37037 62.0778 3.27407C61.963 2.99259 61.8407 2.65185 62.163 2.38148C62.2889 2.25556 62.437 2.16667 62.6074 2.11481L62.6037 2.11852Z" fill="#FCB812"/>
<path d="M48.5037 1.68518C48.337 1.97407 48.6185 2.14444 48.7037 2.35185C49.1593 3.41111 49.6037 4.47778 50.1185 5.51481C50.263 5.80741 50.4185 5.75556 50.6259 5.75926C50.4074 5.97407 50.1037 6.04815 49.8556 6.21111C49.7741 6.12963 49.5333 6.11111 49.737 5.91111C49.8 5.84815 49.7296 5.77778 49.6852 5.78148C49.3037 5.8 49.3963 5.47037 49.3111 5.28148C49.0074 4.61481 48.7222 3.94074 48.4111 3.27778C48.2222 2.87407 48.163 2.41111 47.8852 2.04444C48.0704 1.88889 48.2778 1.77037 48.5037 1.68889V1.68518Z" fill="#FAAD18"/>
<path d="M61.4593 7.87037C60.7889 6.68889 60.237 5.45556 59.7222 4.2C59.6259 3.96296 59.4778 3.84815 59.2481 3.8C59.4556 3.74074 59.6593 3.68519 59.8667 3.62593C60.2889 3.94815 60.4074 4.45185 60.6333 4.89259C61.1074 5.81482 61.4259 6.81482 61.9926 7.69259C61.8333 7.80741 61.6593 7.87407 61.4593 7.87037Z" fill="#FAAA19"/>
<path d="M58.4481 3.81482C59.1074 3.87778 59.0556 4.50741 59.2778 4.8963C59.6222 5.4963 59.8889 6.14074 60.1852 6.76667C60.3407 7.09259 60.5259 7.41482 60.3815 7.8C60.0037 7.7037 59.7185 7.47778 59.4815 7.18148C59.5074 6.94815 59.4074 6.73333 59.3037 6.55926C58.763 5.67407 58.4889 4.65185 57.8741 3.80741C57.8741 3.76296 57.8926 3.72593 57.9259 3.7C58.1 3.73704 58.2704 3.77778 58.4444 3.81482H58.4481Z" fill="#FCB415"/>
<path d="M61.1 3C61.2852 2.84074 61.4963 2.73333 61.7222 2.64444C62.0889 3.95555 62.7593 5.13333 63.3296 6.35555C63.4148 6.54074 63.4704 6.70741 63.4111 6.9037C63.3222 7.0037 63.2074 7.07037 63.0741 7.09259C62.8296 7.12963 62.7037 7.05926 62.6111 6.79259C62.4667 6.38518 62.2444 5.9963 62.0296 5.61852C61.6333 4.92963 61.3963 4.17407 61.0407 3.47037C60.9518 3.2963 60.9222 3.13704 61.1 3.0037V3Z" fill="#FBAE17"/>
<path d="M63.4111 6.9037C62.9148 5.87037 62.3963 4.85185 61.937 3.8037C61.7852 3.45185 61.463 3.08889 61.7222 2.64444C61.8444 2.51481 61.9963 2.43704 62.163 2.38148C62.0926 2.77037 62.1667 3.14444 62.3333 3.48889C62.7889 4.44074 63.2556 5.38518 63.7333 6.32222C63.7889 6.42963 63.6704 6.60741 63.8741 6.64444C63.7222 6.72963 63.5667 6.81481 63.4148 6.9L63.4111 6.9037Z" fill="#FBB414"/>
<path d="M57.9111 3.80741C58.2741 3.96667 58.4296 4.32963 58.5667 4.63333C58.8963 5.35926 59.2704 6.06296 59.5889 6.7963C59.6481 6.93333 59.7111 7.10741 59.4815 7.18518C58.9074 6.65556 58.4889 6 57.9963 5.4037C58.0296 5.09259 57.9667 4.8037 57.8333 4.51852C57.7222 4.27778 57.6407 4.02222 57.9074 3.81111L57.9111 3.80741Z" fill="#FBB613"/>
<path d="M61.1 3C61.1259 3.42593 61.3593 3.77778 61.5259 4.15185C61.9074 5.01111 62.3 5.86667 62.7667 6.68889C62.8556 6.84815 62.9407 6.97778 63.0741 7.08889C63.0037 7.18148 62.9037 7.22963 62.7889 7.25926C62.3481 7.19259 62.3593 6.75926 62.2185 6.48889C61.7889 5.67407 61.4296 4.82593 61.0556 3.98148C60.9333 3.7037 60.6926 3.42593 60.9259 3.09259C60.9593 3.01481 61.0296 3.00741 61.1 2.9963V3Z" fill="#FAAA19"/>
<path d="M57.9111 3.80741C57.7852 4.2037 58.0333 4.51111 58.1593 4.84815C58.2444 5.08148 58.2667 5.27778 58 5.4037C57.7259 5.17037 57.4556 4.93704 57.1815 4.70741C57.2444 4.28518 57.0815 3.88889 56.9259 3.52963C56.7556 3.13704 56.4 2.82592 56.3296 2.37037C56.6259 2.69259 56.9222 3.01481 57.2185 3.33704C57.4148 3.52222 57.637 3.67037 57.9148 3.7L57.9296 3.7037C57.9259 3.74074 57.9185 3.77407 57.9111 3.81111V3.80741Z" fill="#FCBA12"/>
<path d="M41.9296 5.14444C42.0667 5.14444 42.2185 5.21481 42.3222 5.04815C42.4259 4.88518 42.3185 4.77778 42.2407 4.65555C42.1926 4.58148 42.1556 4.5037 42.1111 4.42963C42.0407 4.30741 41.7593 4.0963 42.2111 4.18518C42.2111 4.11481 42.2111 4.04444 42.2074 3.97407C42.337 3.96667 42.4556 4 42.5593 4.08148C42.5111 4.14815 42.4074 4.2 42.4815 4.3C42.7407 4.65926 42.8111 5.12592 43.1519 5.44444C43.4111 5.68518 43.3407 6.07407 43.5815 6.42592C43.337 6.36296 43.2444 6.17407 43.0667 6.20741C42.6889 5.85185 42.3074 5.4963 41.9296 5.14074V5.14444Z" fill="#FBBB12"/>
<path d="M39.5444 4.4037C39.8074 4.47037 40.0889 4.34815 40.3407 4.5C39.9 4.5 39.4593 4.5 39.0148 4.5037C39.1741 4.37407 39.3704 4.45185 39.5444 4.4037Z" fill="#FCBE10"/>
<path d="M26.8518 5.56667C26.7815 5.73333 26.537 5.7963 26.5852 6.02963C26.1667 5.58518 26.7444 5.71111 26.8518 5.56667Z" fill="#BD9D36"/>
<path d="M41.9222 3.81111C41.8593 3.84444 41.7741 3.92222 41.7444 3.9037C41.6593 3.85555 41.7519 3.78518 41.763 3.72222C41.8444 3.7 41.9 3.72593 41.9222 3.81111Z" fill="#FBBB12"/>
<path d="M57.9148 3.69629C57.5667 3.8 57.3852 3.57778 57.2185 3.33333C57.4519 3.45555 57.6815 3.57407 57.9148 3.69629Z" fill="#FBB613"/>
</g>
<defs>
<clipPath id="clip0_5_34">
<rect width="68" height="32" fill="white"/>
</clipPath>
</defs>
</svg>
